<svg width="34" height="36" viewBox="0 0 34 36" fill="none" xmlns="http://www.w3.org/2000/svg">
<path d="M7.13452 6.54077L9.44302 8.43827L11.7995 10.9538L11.219 14.8763L7.50652 16.7558L5.54602 18.4283L6.50002 20.0558L8.37202 22.0613L9.38302 25.6013L6.57202 27.9593L6.05752 30.1478" stroke="#666666" stroke-width="2" stroke-linecap="round" stroke-linejoin="round"/>
<path d="M14.5865 34.3838L14.3375 32.7953L17.27 29.6273L18.7205 25.6448L23.3645 23.8823L27.8645 24.7808L30.344 27.1838" stroke="#666666" stroke-width="2" stroke-linecap="round" stroke-linejoin="round"/>
<path d="M32.591 16.5699C33.0728 19.9316 32.4539 23.359 30.8268 26.3399C29.1996 29.3207 26.6515 31.695 23.5633 33.1079C20.4751 34.5208 17.0127 34.8964 13.6933 34.1787C10.374 33.461 7.376 31.6884 5.14741 29.1259C2.91881 26.5634 1.57926 23.3485 1.32894 19.9617C1.07862 16.5749 1.93097 13.198 3.75861 10.3356C5.58625 7.47332 8.29104 5.27925 11.4688 4.08132C14.6466 2.88338 18.1266 2.74591 21.389 3.68944" stroke="#666666" stroke-width="2" stroke-linecap="round" stroke-linejoin="round"/>
<path d="M26 9.06982C26.8284 9.06982 27.5 8.39825 27.5 7.56982C27.5 6.7414 26.8284 6.06982 26 6.06982C25.1716 6.06982 24.5 6.7414 24.5 7.56982C24.5 8.39825 25.1716 9.06982 26 9.06982Z" fill="#666666"/>
<path d="M32 7.56982C32 11.2733 26 16.5698 26 16.5698C26 16.5698 20 11.2733 20 7.56982C20 5.97853 20.6321 4.4524 21.7574 3.32718C22.8826 2.20197 24.4087 1.56982 26 1.56982C27.5913 1.56982 29.1174 2.20197 30.2426 3.32718C31.3679 4.4524 32 5.97853 32 7.56982V7.56982Z" stroke="#666666" stroke-width="2" stroke-linecap="round" stroke-linejoin="round"/>
</svg>
