<svg width="36" height="37" viewBox="0 0 36 37" fill="none" xmlns="http://www.w3.org/2000/svg">
<g clip-path="url(#clip0_24_63)">
<path d="M12 33.0697H27.3435C27.9852 33.0698 28.6101 32.8642 29.1263 32.483C29.6425 32.1018 30.0228 31.5651 30.2115 30.9517L34.365 17.4517C34.503 17.0032 34.5338 16.5286 34.455 16.066C34.3762 15.6035 34.19 15.1658 33.9114 14.7883C33.6328 14.4107 33.2694 14.1038 32.8506 13.8922C32.4318 13.6805 31.9692 13.5701 31.5 13.5697H21V7.56971C21 4.01021 19.1235 2.32871 16.854 1.77971C16.6326 1.72771 16.4023 1.72644 16.1803 1.77599C15.9583 1.82554 15.7504 1.92463 15.5721 2.06585C15.3938 2.20708 15.2497 2.38678 15.1506 2.59153C15.0516 2.79627 15.0001 3.02076 15 3.24821V9.06971L7.5 18.0697" stroke="#666666" stroke-width="2" stroke-linecap="round" stroke-linejoin="round"/>
<path d="M7.5 15.0698H1.5V33.0698H7.5V15.0698Z" stroke="#666666" stroke-width="2" stroke-linecap="round" stroke-linejoin="round"/>
</g>
<defs>
<clipPath id="clip0_24_63">
<rect width="36" height="36" fill="white" transform="translate(0 0.0698242)"/>
</clipPath>
</defs>
</svg>
