<svg width="36" height="37" viewBox="0 0 36 37" fill="none" xmlns="http://www.w3.org/2000/svg">
<path d="M6 19.5698V33.0698H30V19.5698" stroke="#666666" stroke-width="2" stroke-linecap="round" stroke-linejoin="round"/>
<path d="M6.00001 3.06982L1.50001 10.5698C1.49775 11.5814 1.83727 12.564 2.46352 13.3584C3.08977 14.1528 3.96602 14.7123 4.95015 14.9462C5.93429 15.1801 6.96858 15.0747 7.8853 14.6471C8.80201 14.2195 9.54738 13.4947 10.0005 12.5903C10.3702 13.3351 10.9405 13.9618 11.6472 14.3999C12.3538 14.8381 13.1688 15.0702 14.0003 15.0702C14.8317 15.0702 15.6467 14.8381 16.3533 14.3999C17.06 13.9618 17.6303 13.3351 18 12.5903C18.3697 13.3351 18.94 13.9618 19.6467 14.3999C20.3533 14.8381 21.1683 15.0702 21.9998 15.0702C22.8312 15.0702 23.6462 14.8381 24.3528 14.3999C25.0595 13.9618 25.6298 13.3351 25.9995 12.5903C26.4526 13.4947 27.198 14.2195 28.1147 14.6471C29.0314 15.0747 30.0657 15.1801 31.0499 14.9462C32.034 14.7123 32.9102 14.1528 33.5365 13.3584C34.1628 12.564 34.5023 11.5814 34.5 10.5698L30 3.06982H6.00001Z" stroke="#666666" stroke-width="2" stroke-linecap="round" stroke-linejoin="round"/>
<path d="M15 33.0698V24.0698H21V33.0698" stroke="#666666" stroke-width="2" stroke-linecap="round" stroke-linejoin="round"/>
</svg>
